<svg xmlns="http://www.w3.org/2000/svg" width="167.214" height="34.073" viewBox="0 0 167.214 34.073"><defs><style>.a{fill:#fff;}.a,.b{fill-rule:evenodd;}.b,.c{fill:#f8b439;}</style></defs><g transform="translate(83.607 17.036)"><g transform="translate(-83.607 -17.036)"><g transform="translate(-5.186 -5.627)"><path class="a" d="M44.3,11.7h2.2v9.8H44.3Zm6.2,0h2.3l2.6,4.1L58,11.7h2.3v9.8H58.1V15.1l-2.8,4.2h-.1l-2.7-4.1v6.4h-2Zm13.7,0h2.3l2.6,4.1,2.6-4.1H74v9.8H71.9V15.1l-2.8,4.2H69l-2.7-4.1v6.4H64.2ZM82,21.7a4.3,4.3,0,0,1-3.1-1.1,4.3,4.3,0,0,1-1.1-3.3V11.7H80v5.5a2.6,2.6,0,0,0,.6,1.8,2.433,2.433,0,0,0,3.2,0,2.5,2.5,0,0,0,.6-1.8V11.7h2.2v5.5a5.7,5.7,0,0,1-.3,1.9,3.7,3.7,0,0,1-.9,1.4,3.5,3.5,0,0,1-1.4.8,5.5,5.5,0,0,1-2,.4Zm8.1-10h2l4.6,6v-6h2.1v9.8H97l-4.7-6.2v6.2H90.1Zm12.7,0H105v9.8h-2.2Zm5.9,8.2,5.4-6.3h-5.2V11.7h8v1.6l-5.4,6.3h5.4v1.9h-8.2Zm15.2-8.2h2l4.2,9.9h-2.3l-.9-2.2h-4.1l-.9,2.2h-2.2Zm2.3,5.8-1.3-3.2-1.3,3.2Zm9.3-3.7h-3v-2h8.1v2h-3v7.8h-2.2Zm8.5-2h2.2v9.8H144Zm11,10a5.3,5.3,0,0,1-2.1-.4,5.2,5.2,0,0,1-1.6-1.1,4.8,4.8,0,0,1-1.1-1.6,5,5,0,0,1-.4-2h0a5.075,5.075,0,0,1,3.1-4.7,5.7,5.7,0,0,1,4.2,0,5.2,5.2,0,0,1,1.6,1.1,4.8,4.8,0,0,1,1.1,1.6,5,5,0,0,1,.4,2h0a5.075,5.075,0,0,1-3.1,4.7,5.4,5.4,0,0,1-2.2.3Zm0-2,1.2-.2.9-.7a3.1,3.1,0,0,0,.6-1,3.2,3.2,0,0,0,.2-1.2h0a3.3,3.3,0,0,0-.2-1.2,3,3,0,0,0-.6-1l-.9-.7-1.2-.2-1.2.2-.9.7a3.1,3.1,0,0,0-.6,1,3.2,3.2,0,0,0-.2,1.2h0a3.3,3.3,0,0,0,.2,1.2,3,3,0,0,0,.6,1l.9.7Zm8.7-8h2l4.6,6v-6h2.1v9.8h-1.8l-4.7-6.2v6.2h-2.1Z"/><path class="a" d="M44.3,11.7h2.2v9.8H44.3Zm6.2,0h2.3l2.6,4.1L58,11.7h2.3v9.8H58.1V15.1l-2.8,4.2h-.1l-2.7-4.1v6.4h-2Zm13.7,0h2.3l2.6,4.1,2.6-4.1H74v9.8H71.9V15.1l-2.8,4.2H69l-2.7-4.1v6.4H64.2ZM82,21.7a4.3,4.3,0,0,1-3.1-1.1,4.3,4.3,0,0,1-1.1-3.3V11.7H80v5.5a2.6,2.6,0,0,0,.6,1.8,2.433,2.433,0,0,0,3.2,0,2.5,2.5,0,0,0,.6-1.8V11.7h2.2v5.5a5.7,5.7,0,0,1-.3,1.9,3.7,3.7,0,0,1-.9,1.4,3.5,3.5,0,0,1-1.4.8,5.5,5.5,0,0,1-2,.4Zm8.1-10h2l4.6,6v-6h2.1v9.8H97l-4.7-6.2v6.2H90.1Zm12.7,0H105v9.8h-2.2Zm5.9,8.2,5.4-6.3h-5.2V11.7h8v1.6l-5.4,6.3h5.4v1.9h-8.2Zm15.2-8.2h2l4.2,9.9h-2.3l-.9-2.2h-4.1l-.9,2.2h-2.2Zm2.3,5.8-1.3-3.2-1.3,3.2Zm9.3-3.7h-3v-2h8.1v2h-3v7.8h-2.2Zm8.5-2h2.2v9.8H144Zm11,10a5.3,5.3,0,0,1-2.1-.4,5.2,5.2,0,0,1-1.6-1.1,4.8,4.8,0,0,1-1.1-1.6,5,5,0,0,1-.4-2h0a5.075,5.075,0,0,1,3.1-4.7,5.7,5.7,0,0,1,4.2,0,5.2,5.2,0,0,1,1.6,1.1,4.8,4.8,0,0,1,1.1,1.6,5,5,0,0,1,.4,2h0a5.075,5.075,0,0,1-3.1,4.7,5.4,5.4,0,0,1-2.2.3Zm0-2,1.2-.2.9-.7a3.1,3.1,0,0,0,.6-1,3.2,3.2,0,0,0,.2-1.2h0a3.3,3.3,0,0,0-.2-1.2,3,3,0,0,0-.6-1l-.9-.7-1.2-.2-1.2.2-.9.7a3.1,3.1,0,0,0-.6,1,3.2,3.2,0,0,0-.2,1.2h0a3.3,3.3,0,0,0,.2,1.2,3,3,0,0,0,.6,1l.9.7Zm8.7-8h2l4.6,6v-6h2.1v9.8h-1.8l-4.7-6.2v6.2h-2.1Z"/><path class="b" d="M47.5,29.6h2l4.2,9.9H51.5l-.9-2.2H46.4l-.9,2.2H43.3Zm2.3,5.8-1.3-3.2-1.3,3.2Zm11.3,4.3a5.1,5.1,0,0,1-2-.4,4.8,4.8,0,0,1-2.6-2.7,5.2,5.2,0,0,1-.4-2h0A5.465,5.465,0,0,1,57.5,31a4.9,4.9,0,0,1,1.6-1.1,5.2,5.2,0,0,1,2.1-.4h1.3l1,.3.9.5.7.6-1.4,1.6-1.2-.8a3,3,0,0,0-1.3-.3l-1.1.2-.9.7a3.1,3.1,0,0,0-.6,1,3.3,3.3,0,0,0-.2,1.2h0a3.4,3.4,0,0,0,.2,1.2,3.1,3.1,0,0,0,.6,1l.9.7,1.2.2a3,3,0,0,0,1.4-.3l1.2-.8,1.4,1.4-.8.7-.9.6-1.1.4Zm10.4-10h2l4.2,9.9H75.5l-.9-2.2H70.4l-.9,2.2H67.3Zm2.3,5.8-1.3-3.2-1.3,3.2Zm6.7-5.7h3.8a5.8,5.8,0,0,1,2.1.4,5,5,0,0,1,1.7,1,4.6,4.6,0,0,1,1.1,1.5,4.9,4.9,0,0,1,.4,1.9h0a4.9,4.9,0,0,1-.4,1.9,4.6,4.6,0,0,1-1.1,1.6,5.1,5.1,0,0,1-1.7,1,5.7,5.7,0,0,1-2.1.4H80.5Zm2.2,1.9v5.9h1.7l1.2-.2.9-.6a2.8,2.8,0,0,0,.6-.9,3.1,3.1,0,0,0,.2-1.2h0a3.2,3.2,0,0,0-.2-1.2,2.8,2.8,0,0,0-.6-.9l-.9-.6-1.2-.2Zm10.1-1.9h7.4v1.9H94.9v2h4.6v1.9H94.9v2.1h5.3v1.9H92.8Zm10.7,0h2.3l2.6,4.1,2.6-4.1h2.3v9.8h-2.1V33.1l-2.8,4.2h-.1l-2.7-4.1v6.4h-2.1Zm16.2,5.9-3.8-5.9h2.5l2.3,3.9,2.4-3.9h2.4l-3.8,5.9v3.9h-2.2Z"/><path class="b" d="M47.5,29.6h2l4.2,9.9H51.5l-.9-2.2H46.4l-.9,2.2H43.3Zm2.3,5.8-1.3-3.2-1.3,3.2Zm11.3,4.3a5.1,5.1,0,0,1-2-.4,4.8,4.8,0,0,1-2.6-2.7,5.2,5.2,0,0,1-.4-2h0A5.465,5.465,0,0,1,57.5,31a4.9,4.9,0,0,1,1.6-1.1,5.2,5.2,0,0,1,2.1-.4h1.3l1,.3.9.5.7.6-1.4,1.6-1.2-.8a3,3,0,0,0-1.3-.3l-1.1.2-.9.7a3.1,3.1,0,0,0-.6,1,3.3,3.3,0,0,0-.2,1.2h0a3.4,3.4,0,0,0,.2,1.2,3.1,3.1,0,0,0,.6,1l.9.7,1.2.2a3,3,0,0,0,1.4-.3l1.2-.8,1.4,1.4-.8.7-.9.6-1.1.4Zm10.4-10h2l4.2,9.9H75.5l-.9-2.2H70.4l-.9,2.2H67.3Zm2.3,5.8-1.3-3.2-1.3,3.2Zm6.7-5.7h3.8a5.8,5.8,0,0,1,2.1.4,5,5,0,0,1,1.7,1,4.6,4.6,0,0,1,1.1,1.5,4.9,4.9,0,0,1,.4,1.9h0a4.9,4.9,0,0,1-.4,1.9,4.6,4.6,0,0,1-1.1,1.6,5.1,5.1,0,0,1-1.7,1,5.7,5.7,0,0,1-2.1.4H80.5Zm2.2,1.9v5.9h1.7l1.2-.2.9-.6a2.8,2.8,0,0,0,.6-.9,3.1,3.1,0,0,0,.2-1.2h0a3.2,3.2,0,0,0-.2-1.2,2.8,2.8,0,0,0-.6-.9l-.9-.6-1.2-.2Zm10.1-1.9h7.4v1.9H94.9v2h4.6v1.9H94.9v2.1h5.3v1.9H92.8Zm10.7,0h2.3l2.6,4.1,2.6-4.1h2.3v9.8h-2.1V33.1l-2.8,4.2h-.1l-2.7-4.1v6.4h-2.1Zm16.2,5.9-3.8-5.9h2.5l2.3,3.9,2.4-3.9h2.4l-3.8,5.9v3.9h-2.2Z"/></g><path class="c" d="M31.4,13.4a1.7,1.7,0,0,0-.9-1.7L25.7,9.8l-1.3-.2c-.1,1.5,0,1.7,1.3,2.1L28.9,13a1.5,1.5,0,0,1,.8,1.5V27.2c0,.3-.1.7-.1,1h-.2c-.2-5.5-2.1-10-7.2-12.7,2.2-3.7,2.2-6.4-.2-8.5a5.7,5.7,0,0,0-7.3-.1,5.4,5.4,0,0,0-2,3.4,5.9,5.9,0,0,0,1.7,5.1c-5.2,2.8-7.1,7.3-7.3,12.9a5.3,5.3,0,0,1-.3-1.5q0-6,0-12a2.2,2.2,0,0,1,1.5-2.3l3.2-1.1a1.47,1.47,0,0,0,.6-.5,9.2,9.2,0,0,0,.2-1.5,19.1,19.1,0,0,0-6,2,2.1,2.1,0,0,0-1.1,2.1V27.6A8,8,0,0,0,5.7,30a9.8,9.8,0,0,0,5,5.6A56.6,56.6,0,0,0,16.3,38c.5.2.8.1.8-.6a11,11,0,0,1,0-1.6,1.7,1.7,0,0,0-.6-1.5,20.4,20.4,0,0,1-2-2,2.8,2.8,0,0,1-.6-1.5,4.5,4.5,0,0,1,8.9-1.2,2.7,2.7,0,0,1-.8,3,24.1,24.1,0,0,0-1.9,1.9c-.1.1-.4.3-.4.5v3.2c3.7-1,7.2-2.3,9.7-5.1a8.1,8.1,0,0,0,2.2-5.4C31.4,22.8,31.4,18.1,31.4,13.4ZM18.3,24a3.3,3.3,0,1,1,0-6.6,3.4,3.4,0,0,1,3.3,3.3A3.3,3.3,0,0,1,18.3,24Z" transform="translate(-5.186 -5.627)"/></g></g></svg>